<svg width="32" height="32" viewBox="0 0 32 32" fill="none" xmlns="http://www.w3.org/2000/svg">
<path d="M22.57 15.555C22.57 15.7977 22.4736 16.0304 22.302 16.202C22.1304 16.3736 21.8977 16.47 21.655 16.47H9.455C9.21233 16.47 8.9796 16.3736 8.808 16.202C8.63641 16.0304 8.54 15.7977 8.54 15.555C8.54 15.3123 8.63641 15.0796 8.808 14.908C8.9796 14.7364 9.21233 14.64 9.455 14.64H21.655C21.8977 14.64 22.1304 14.7364 22.302 14.908C22.4736 15.0796 22.57 15.3123 22.57 15.555ZM31.11 15.555C31.11 18.6315 30.1977 21.6389 28.4885 24.1969C26.7793 26.7549 24.3499 28.7486 21.5076 29.9259C18.6653 31.1033 15.5377 31.4113 12.5204 30.8111C9.503 30.2109 6.73137 28.7294 4.55596 26.554C2.38055 24.3786 0.899085 21.607 0.298892 18.5896C-0.301301 15.5723 0.0067395 12.4447 1.18406 9.60236C2.36138 6.76005 4.3551 4.33069 6.91311 2.62149C9.47112 0.912284 12.4785 0 15.555 0C19.679 0.00484317 23.6326 1.64522 26.5487 4.5613C29.4648 7.47738 31.1052 11.431 31.11 15.555ZM29.28 15.555C29.28 12.8404 28.475 10.1869 26.9669 7.9298C25.4588 5.67273 23.3152 3.91357 20.8073 2.87475C18.2994 1.83594 15.5398 1.56414 12.8774 2.09372C10.215 2.6233 7.76944 3.93048 5.84997 5.84996C3.93049 7.76943 2.62331 10.215 2.09373 12.8774C1.56415 15.5398 1.83595 18.2994 2.87476 20.8073C3.91357 23.3152 5.67274 25.4588 7.9298 26.9669C10.1869 28.475 12.8405 29.28 15.555 29.28C19.1939 29.276 22.6825 27.8286 25.2556 25.2556C27.8286 22.6825 29.276 19.1939 29.28 15.555Z" fill="black"/>
<path d="M15.5551 22.57C15.3124 22.57 15.0797 22.4736 14.9081 22.302C14.7365 22.1304 14.6401 21.8977 14.6401 21.655L14.6401 9.455C14.6401 9.21233 14.7365 8.9796 14.9081 8.808C15.0797 8.63641 15.3124 8.54 15.5551 8.54C15.7978 8.54 16.0305 8.63641 16.2021 8.808C16.3737 8.9796 16.4701 9.21233 16.4701 9.455L16.4701 21.655C16.4701 21.8977 16.3737 22.1304 16.2021 22.302C16.0305 22.4736 15.7978 22.57 15.5551 22.57ZM15.5551 31.11C12.4786 31.11 9.47122 30.1977 6.91322 28.4885C4.35521 26.7793 2.36149 24.3499 1.18417 21.5076C0.00684657 18.6653 -0.301194 15.5377 0.298999 12.5204C0.899192 9.503 2.38066 6.73136 4.55607 4.55596C6.73147 2.38055 9.50311 0.899084 12.5205 0.298891C15.5379 -0.301302 18.6654 0.00673895 21.5078 1.18406C24.3501 2.36138 26.7794 4.3551 28.4886 6.91311C30.1978 9.47112 31.1101 12.4785 31.1101 15.555C31.1053 19.679 29.4649 23.6326 26.5488 26.5487C23.6327 29.4648 19.6791 31.1052 15.5551 31.11ZM15.5551 29.28C18.2697 29.28 20.9232 28.475 23.1803 26.9669C25.4374 25.4588 27.1965 23.3152 28.2354 20.8073C29.2742 18.2994 29.546 15.5398 29.0164 12.8774C28.4868 10.215 27.1796 7.76944 25.2601 5.84996C23.3407 3.93049 20.8951 2.62331 18.2327 2.09373C15.5703 1.56415 12.8107 1.83595 10.3028 2.87476C7.79487 3.91357 5.65132 5.67274 4.14319 7.9298C2.63507 10.1869 1.83011 12.8405 1.83011 15.555C1.83415 19.1939 3.28147 22.6825 5.85453 25.2556C8.42759 27.8286 11.9163 29.276 15.5551 29.28Z" fill="black"/>
</svg>
