<svg width="190" height="29" viewBox="0 0 190 29" fill="none" xmlns="http://www.w3.org/2000/svg">
<path fill-rule="evenodd" clip-rule="evenodd" d="M105.104 26.5384C106.295 27.197 107.638 27.5264 109.132 27.5264C110.196 27.5264 111.159 27.387 112.02 27.1084C112.907 26.8297 113.692 26.4624 114.376 26.0064L114.718 27.3744L121.216 26.9564V26.5764L120.874 26.4624C120.393 26.3357 120.064 26.1204 119.886 25.8164C119.709 25.487 119.62 25.069 119.62 24.5624V5.98036L119.772 0.660359L119.354 0.318359L112.438 1.99036V2.37036L113.16 2.52236C113.692 2.62369 114.034 2.80103 114.186 3.05436C114.364 3.30769 114.452 3.70036 114.452 4.23236V9.17236C113.819 8.81769 113.097 8.55169 112.286 8.37436C111.476 8.19703 110.627 8.10836 109.74 8.10836C108.22 8.10836 106.814 8.47569 105.522 9.21036C104.23 9.91969 103.192 11.009 102.406 12.4784C101.621 13.9224 101.228 15.759 101.228 17.9884C101.228 20.1924 101.57 22.0037 102.254 23.4224C102.964 24.8157 103.914 25.8544 105.104 26.5384ZM114.262 25.1704C113.376 25.8037 112.4 26.1204 111.336 26.1204C110.044 26.1204 108.993 25.5124 108.182 24.2964C107.372 23.055 106.966 20.927 106.966 17.9124C106.966 14.8977 107.397 12.6937 108.258 11.3004C109.12 9.88169 110.158 9.17236 111.374 9.17236C112.362 9.17236 113.325 9.47636 114.262 10.0844V25.1704ZM52.76 26.9564V26.5764L53.52 26.3104C54.3813 26.0317 54.812 25.3097 54.812 24.1444V4.68836C54.812 4.18169 54.7487 3.77636 54.622 3.47236C54.5207 3.16836 54.2293 2.91503 53.748 2.71236L52.76 2.25636V1.87636H60.094L67.124 20.2684L73.736 1.87636H81.222V2.25636L80.614 2.48436C80.1327 2.66169 79.8033 2.91503 79.626 3.24436C79.4487 3.54836 79.36 3.95369 79.36 4.46036V24.3344C79.36 24.841 79.4233 25.2337 79.55 25.5124C79.6767 25.791 79.9807 26.0317 80.462 26.2344L81.222 26.5764V26.9564H71.76V26.5764L72.558 26.2344C73.0393 26.0317 73.3433 25.791 73.47 25.5124C73.5967 25.2337 73.66 24.841 73.66 24.3344V15.7844L73.736 4.91636L65.794 26.9564H63.894L55.61 5.18236L55.724 14.6444V24.2204C55.724 24.7777 55.8 25.2337 55.952 25.5884C56.1293 25.9177 56.4587 26.1584 56.94 26.3104L57.776 26.5764V26.9564H52.76ZM91.3547 8.10836C93.0013 8.10836 94.4073 8.45036 95.5727 9.13436C96.738 9.79303 97.6247 10.705 98.2327 11.8704C98.866 13.0104 99.1826 14.315 99.1826 15.7844C99.1826 16.063 99.17 16.3544 99.1447 16.6584C99.1193 16.937 99.0686 17.1904 98.9927 17.4184H87.6687C87.694 20.1544 88.1753 22.1304 89.1127 23.3464C90.0753 24.537 91.494 25.1324 93.3687 25.1324C94.6353 25.1324 95.6613 24.9297 96.4467 24.5244C97.232 24.119 97.9667 23.5237 98.6507 22.7384L99.0307 23.0804C98.2453 24.4737 97.194 25.563 95.8766 26.3484C94.5846 27.1337 93.0266 27.5264 91.2027 27.5264C89.404 27.5264 87.808 27.1464 86.4147 26.3864C85.0213 25.601 83.932 24.4864 83.1467 23.0424C82.3613 21.5984 81.9687 19.8757 81.9687 17.8744C81.9687 15.797 82.4247 14.0364 83.3367 12.5924C84.2486 11.123 85.414 10.0084 86.8327 9.24836C88.2766 8.48836 89.784 8.10836 91.3547 8.10836ZM91.2407 8.86836C90.506 8.86836 89.8727 9.09636 89.3407 9.55236C88.834 9.98303 88.4286 10.7684 88.1246 11.9084C87.846 13.023 87.694 14.6064 87.6687 16.6584H94.1667C94.42 13.897 94.3186 11.9084 93.8627 10.6924C93.4067 9.47636 92.5327 8.86836 91.2407 8.86836ZM127.457 6.13236C126.595 6.13236 125.861 5.86636 125.253 5.33436C124.67 4.77703 124.379 4.08036 124.379 3.24436C124.379 2.38303 124.67 1.68636 125.253 1.15436C125.861 0.622359 126.595 0.356359 127.457 0.356359C128.318 0.356359 129.04 0.622359 129.623 1.15436C130.205 1.68636 130.497 2.38303 130.497 3.24436C130.497 4.08036 130.205 4.77703 129.623 5.33436C129.04 5.86636 128.318 6.13236 127.457 6.13236ZM122.973 26.9564V26.5764L123.505 26.4244C124.011 26.2724 124.353 26.0444 124.531 25.7404C124.733 25.4364 124.835 25.031 124.835 24.5244V12.6304C124.835 12.0984 124.733 11.7057 124.531 11.4524C124.353 11.1737 124.011 10.9837 123.505 10.8824L122.973 10.7684V10.3884L129.927 8.14636L130.307 8.52636L130.193 13.9224V24.5624C130.193 25.069 130.281 25.4744 130.459 25.7784C130.661 26.0824 131.003 26.3104 131.485 26.4624L131.865 26.5764V26.9564H122.973ZM138.145 26.3484C139.564 27.1337 141.236 27.5264 143.161 27.5264C145.086 27.5264 146.746 27.1337 148.139 26.3484C149.558 25.5377 150.647 24.4104 151.407 22.9664C152.192 21.497 152.585 19.7617 152.585 17.7604C152.585 15.759 152.167 14.0364 151.331 12.5924C150.52 11.1484 149.406 10.0464 147.987 9.28636C146.568 8.50103 144.96 8.10836 143.161 8.10836C141.362 8.10836 139.741 8.50103 138.297 9.28636C136.878 10.0717 135.751 11.1864 134.915 12.6304C134.104 14.0744 133.699 15.7844 133.699 17.7604C133.699 19.7364 134.079 21.459 134.839 22.9284C135.624 24.3977 136.726 25.5377 138.145 26.3484ZM145.289 26.0064C144.757 26.513 144.048 26.7664 143.161 26.7664C142.274 26.7664 141.552 26.513 140.995 26.0064C140.463 25.4997 140.07 24.6004 139.817 23.3084C139.589 22.0164 139.475 20.1924 139.475 17.8364C139.475 15.455 139.589 13.6184 139.817 12.3264C140.07 11.0344 140.463 10.135 140.995 9.62836C141.552 9.12169 142.274 8.86836 143.161 8.86836C144.048 8.86836 144.757 9.12169 145.289 9.62836C145.821 10.135 146.201 11.0344 146.429 12.3264C146.682 13.6184 146.809 15.455 146.809 17.8364C146.809 20.1924 146.682 22.0164 146.429 23.3084C146.201 24.6004 145.821 25.4997 145.289 26.0064ZM154.254 26.9564V26.5764L154.824 26.4244C155.331 26.2724 155.673 26.0444 155.85 25.7404C156.053 25.4364 156.154 25.0437 156.154 24.5624V12.6684C156.154 12.111 156.053 11.7057 155.85 11.4524C155.673 11.1737 155.331 10.9837 154.824 10.8824L154.254 10.7304V10.3504L160.79 8.14636L161.17 8.52636L161.512 11.7944V12.0984C161.867 11.389 162.323 10.743 162.88 10.1604C163.463 9.55236 164.096 9.05836 164.78 8.67836C165.489 8.29836 166.186 8.10836 166.87 8.10836C167.833 8.10836 168.567 8.37436 169.074 8.90636C169.581 9.43836 169.834 10.1097 169.834 10.9204C169.834 11.7817 169.581 12.453 169.074 12.9344C168.593 13.3904 168.01 13.6184 167.326 13.6184C166.262 13.6184 165.325 13.0864 164.514 12.0224L164.438 11.9464C164.185 11.5917 163.893 11.4017 163.564 11.3764C163.235 11.3257 162.931 11.4777 162.652 11.8324C162.399 12.0604 162.183 12.339 162.006 12.6684C161.854 12.9724 161.702 13.327 161.55 13.7324V24.3344C161.55 25.3477 161.993 25.981 162.88 26.2344L164.096 26.5764V26.9564H154.254ZM172.035 26.2724C173.049 27.1084 174.29 27.5264 175.759 27.5264C177.026 27.5264 178.052 27.2477 178.837 26.6904C179.648 26.1077 180.433 25.411 181.193 24.6004C181.396 25.4617 181.814 26.1584 182.447 26.6904C183.106 27.197 183.993 27.4504 185.107 27.4504C186.146 27.4504 186.944 27.2857 187.501 26.9564C188.084 26.627 188.616 26.1584 189.097 25.5504L188.755 25.2464H187.919C186.855 25.2464 186.323 24.6764 186.323 23.5364V15.1384C186.323 12.6557 185.703 10.8697 184.461 9.78036C183.245 8.66569 181.51 8.10836 179.255 8.10836C177.862 8.10836 176.57 8.28569 175.379 8.64036C174.189 8.99503 173.226 9.52703 172.491 10.2364C171.782 10.9457 171.427 11.8197 171.427 12.8584C171.427 13.5424 171.643 14.087 172.073 14.4924C172.504 14.8977 173.049 15.1004 173.707 15.1004C174.417 15.1004 175.012 14.847 175.493 14.3404C175.975 13.8337 176.241 13.0357 176.291 11.9464L176.367 11.5284C176.469 10.5657 176.697 9.89436 177.051 9.51436C177.406 9.10903 177.887 8.90636 178.495 8.90636C179.382 8.90636 180.028 9.26103 180.433 9.97036C180.864 10.6544 181.079 11.8577 181.079 13.5804V16.5824C180.522 16.6837 179.99 16.785 179.483 16.8864C178.977 16.9624 178.521 17.0384 178.115 17.1144C175.506 17.621 173.593 18.381 172.377 19.3944C171.161 20.3824 170.553 21.4717 170.553 22.6624C170.553 24.233 171.047 25.4364 172.035 26.2724ZM179.483 24.8664C179.053 25.0944 178.584 25.2084 178.077 25.2084C177.393 25.2084 176.811 24.955 176.329 24.4484C175.848 23.9164 175.607 23.131 175.607 22.0924C175.607 20.8764 175.949 19.9137 176.633 19.2044C177.343 18.4697 178.28 17.9504 179.445 17.6464C179.775 17.5957 180.066 17.545 180.319 17.4944L181.079 17.3424V23.7264C180.471 24.233 179.939 24.613 179.483 24.8664ZM28 14.9564C28 22.6884 21.732 28.9564 14 28.9564C6.26801 28.9564 0 22.6884 0 14.9564C0 7.22443 6.26801 0.956421 14 0.956421C21.732 0.956421 28 7.22443 28 14.9564ZM44 14.9564C44 22.6884 40.866 28.9564 37 28.9564C33.134 28.9564 30 22.6884 30 14.9564C30 7.22443 33.134 0.956421 37 0.956421C40.866 0.956421 44 7.22443 44 14.9564Z" fill="#121212"/>
</svg>
