<svg width="21" height="21" viewBox="0 0 21 21" fill="none" xmlns="http://www.w3.org/2000/svg">
<path d="M14.4865 11.2927L14.0884 11.6891C14.0884 11.6891 13.1408 12.6306 10.5551 10.0599C7.96952 7.4891 8.91714 6.54761 8.91714 6.54761L9.16739 6.29736C9.78601 5.68311 9.84464 4.69611 9.30476 3.97511L8.20226 2.50248C7.53376 1.60998 6.24314 1.49186 5.47752 2.25311L4.10377 3.61811C3.72489 3.99611 3.47114 4.48436 3.50177 5.02686C3.58052 6.41548 4.20877 9.40185 7.71227 12.8861C11.4284 16.5804 14.9153 16.7274 16.3406 16.5944C16.7921 16.5524 17.1841 16.3231 17.5 16.0081L18.7425 14.7726C19.5825 13.9387 19.3463 12.5081 18.2718 11.9245L16.6005 11.0154C15.8953 10.6321 15.0378 10.745 14.4865 11.2927Z" fill="white"/>
</svg>
