<svg width="28" height="28" viewBox="0 0 28 28" fill="none" xmlns="http://www.w3.org/2000/svg">
<g clip-path="url(#clip0_3_281)">
<path d="M6.22223 24.1111H24.8889C25.714 24.1111 26.5053 23.7834 27.0888 23.1999C27.6722 22.6165 28 21.8251 28 21V17.8889H6.22223V24.1111Z" fill="#008000"/>
<path d="M24.8889 3.88892H6.22223V10.1111H28V7.00003C28 6.17491 27.6722 5.38359 27.0888 4.80014C26.5053 4.21669 25.714 3.88892 24.8889 3.88892Z" fill="#EEEEEE"/>
<path d="M28 10.1111H7V3.88892H3.11111C2.28599 3.88892 1.49467 4.21669 0.911223 4.80014C0.327777 5.38359 0 6.17491 0 7.00003L0 21C0 21.8251 0.327777 22.6165 0.911223 23.1999C1.49467 23.7834 2.28599 24.1111 3.11111 24.1111H7V17.8889H28V10.1111Z" fill="#DB161B"/>
<path d="M2.81943 6.57456C3.06288 7.01556 3.06288 7.18823 2.9921 7.22712C2.9221 7.26601 2.80699 7.15712 2.56432 6.71612C2.32088 6.27512 2.04166 5.67001 2.11166 5.63112C2.18243 5.59145 2.57599 6.13434 2.81943 6.57456ZM4.29021 6.30312C4.04677 6.74412 3.90677 7.13301 3.97754 7.1719C4.04754 7.21079 4.30188 6.8849 4.54532 6.44468C4.78799 6.00368 4.92877 5.61479 4.85799 5.5759C4.78721 5.53701 4.53288 5.8629 4.29021 6.30312ZM3.85232 7.01245L3.62132 5.90645L3.59954 5.90179C3.67965 5.86368 3.74266 5.80379 3.74266 5.71745C3.74266 5.59301 3.62832 5.49268 3.48754 5.49268C3.34677 5.49268 3.23243 5.59379 3.23243 5.71823C3.23243 5.80223 3.29077 5.86834 3.36854 5.90723L3.14766 7.02412L3.85232 7.01245Z" fill="#EEEEEE"/>
<path d="M5.21343 9.15146C5.00265 8.97569 4.16421 8.25002 3.76598 7.8168C3.80176 7.69235 3.82276 7.55858 3.81421 7.41546H3.82743V7.42169H4.52043V7.55546H5.37132V7.14246H4.52043V7.27624H3.82821V7.28246H3.80409V7.07324H3.17176V7.28246H2.91665V7.29491H2.41809V7.1238H1.61621V7.57335H2.41809V7.4038H2.91665V7.41624H3.13132L3.10332 7.70713C3.10332 7.70713 2.29521 7.74291 2.07821 7.77791C1.54309 7.86269 1.71343 8.02058 2.15132 8.1668C2.35276 8.23369 2.55343 8.26013 2.74321 8.27024C2.43443 8.60002 1.80443 9.08924 1.65276 9.17558C1.48243 9.2728 1.48243 9.39413 1.81065 9.3218C2.12876 9.25102 2.86454 8.60158 3.12043 8.27335L3.34209 8.26402C3.45876 8.25935 3.55132 8.18624 3.62909 8.0898C3.96121 8.48258 4.61221 9.06513 4.87354 9.2238C5.15276 9.39413 5.28343 9.39024 5.38221 9.37391C5.48098 9.35758 5.43198 9.33346 5.21343 9.15146Z" fill="#EEEEEE"/>
</g>
<defs>
<clipPath id="clip0_3_281">
<rect width="28" height="28" fill="white"/>
</clipPath>
</defs>
</svg>
