<svg width="22" height="26" viewBox="0 0 22 26" fill="none" xmlns="http://www.w3.org/2000/svg">
<path d="M12.1667 3.66665H4C3.38116 3.66665 2.78767 3.91248 2.35009 4.35006C1.9125 4.78765 1.66667 5.38114 1.66667 5.99998V20C1.66667 20.6188 1.9125 21.2123 2.35009 21.6499C2.78767 22.0875 3.38116 22.3333 4 22.3333H12.1667M16.8333 3.66665H18C18.6188 3.66665 19.2123 3.91248 19.6499 4.35006C20.0875 4.78765 20.3333 5.38114 20.3333 5.99998V7.16665M20.3333 18.8333V20C20.3333 20.6188 20.0875 21.2123 19.6499 21.6499C19.2123 22.0875 18.6188 22.3333 18 22.3333H16.8333M20.3333 11.8333V14.1666M11 1.33331V24.6666" stroke="white" stroke-width="1.5" stroke-linecap="round" stroke-linejoin="round"/>
</svg>
